<svg xmlns="http://www.w3.org/2000/svg" width="65.18" height="168.202" viewBox="0 0 65.18 168.202"><g transform="translate(-21.383 -3.754)"><path d="M29.031,27.351H36.6A14.682,14.682,0,0,0,32.813,16.5a14.682,14.682,0,0,0-3.782,10.85Z" transform="translate(21.16 26.777)" fill="#fff"/><path d="M34.264,54.128c-.5-6.669,2.687-13.167,8.675-17.7a4.37,4.37,0,0,1,5.342,0c5.988,4.531,9.174,11.03,8.675,17.7h8.537c8.077-21.973-1.556-33-19.7-50.374-.41,9.367-4.973,18.291-12.835,25.1-6.21,6.17-11.16,11.127-7.092,25.277Z" transform="translate(8.362)" fill="#fff"/><path d="M86.23,129.456c-1.546-3.2-5.374-5.249-9.564-5.132H61.537c-2.089,0-3.782-1.388-3.782-3.1v-9.3c2.089,0,3.782-1.388,3.782-3.1s-1.693-3.1-3.782-3.1v-6.2c2.089,0,3.782-1.388,3.782-3.1s-1.693-3.1-3.782-3.1v-9.3c.006-1.715,1.7-3.1,3.8-3.1a21.841,21.841,0,0,0,14.776-4.332c7.886-6.868,6.831-21.186,5.9-33.818a74.753,74.753,0,0,1-.064-17.35,2.562,2.562,0,0,0-.782-2.369A3.92,3.92,0,0,0,78.673,22h-49.4a3.92,3.92,0,0,0-2.709,1.046,2.562,2.562,0,0,0-.782,2.369,74.754,74.754,0,0,1-.064,17.35c-.929,12.632-1.983,26.95,5.9,33.818A21.841,21.841,0,0,0,46.4,80.914c2.091,0,3.789,1.386,3.795,3.1v9.3c-2.089,0-3.782,1.388-3.782,3.1s1.693,3.1,3.782,3.1v6.2c-2.089,0-3.782,1.388-3.782,3.1s1.693,3.1,3.782,3.1v9.3c0,1.712-1.693,3.1-3.782,3.1H31.281c-4.19-.118-8.018,1.936-9.564,5.132a2.484,2.484,0,0,0,.225,2.81,3.819,3.819,0,0,0,3.008,1.36H83A3.819,3.819,0,0,0,86,132.267,2.484,2.484,0,0,0,86.23,129.456Z" transform="translate(0 38.329)" fill="#fff"/></g></svg>