<svg xmlns="http://www.w3.org/2000/svg" width="211.353" height="383.845" viewBox="0 0 211.353 383.845"><g transform="translate(-854 -272.18)"><path d="M2498.676-161.731,2464.562-48.763l-14.629,4.876-11.378-43.074-27.632,98.339L2422.3,72.332,2454,99.964l58.515,8.94,40.636-14.629,26.82-29.258,5.689-53.639-18.692-78.833-8.127-19.505-13.816,33.321-8.94,9.753L2506.823-167.42Z" transform="translate(-1539 466)" fill="#ffc300" stroke="#707070" stroke-width="1"/><path d="M2456.541,94.737l-29.816-23.083V48.571l24.045-33.182,27.892-13.946h23.564l25.488,4.809,20.2,14.908L2563.3,48.571l5.29,17.793V80.791l-20.678,13.946-20.2,5.771-3.847-8.656,12.022-25.488-12.022-25.007-21.64-9.618-25.969,2.885-12.984,13.946-6.732,17.793,6.732,25.488Z" transform="translate(-1539 466)" fill="#ffe647" stroke="#707070" stroke-width="1"/><g transform="translate(665.996 257.19)"><path d="M210.927,233.792c-.063.918-.118,1.835-.118,2.768a89.1,89.1,0,0,0,13.616,47.307,90.306,90.306,0,0,0,21.76,23.953A89.222,89.222,0,0,0,300.6,326.354c1.41,0,2.8-.091,4.188-.19l.307-.021.308.021c1.385.1,2.774.19,4.188.19a89.114,89.114,0,0,0,45.849-12.728,90.3,90.3,0,0,0,24.084-20.879,89.3,89.3,0,0,0,19.862-56.188c0-.932-.058-1.85-.117-2.768l-.051-.78c1.023-15.666-1.768-34.648-8.291-56.438-17.757-59.326-18.183-72.447-18.174-73.724a7.544,7.544,0,0,0-14.892-2.323c-.063.316-5.728,28.181-10.627,54.571a.574.574,0,0,1-.054-.025,192.743,192.743,0,0,0-7.543-39.017c-14.972-50.884-18.8-74.69-19.723-84.592a51.885,51.885,0,0,0-.1-9.918,7.543,7.543,0,0,0-6.878-6.53,6.216,6.216,0,0,0-.762-.021,7.563,7.563,0,0,0-6.246,3.058c-1.111,1.5-11.537,17.019-35.363,98a192.4,192.4,0,0,0-7.543,39.017c-.021.008-.038.017-.054.025-4.9-26.39-10.569-54.256-10.632-54.572a7.541,7.541,0,0,0-14.887,2.323c.008,1.278-.421,14.4-18.174,73.724-6.524,21.788-9.315,40.772-8.3,56.438Zm91.558,74.769a29.337,29.337,0,1,1,29.337-29.337A29.37,29.37,0,0,1,302.485,308.56Zm62.807-22.383a74.946,74.946,0,0,1-27.119,19.385,44.424,44.424,0,1,0-73.884-3.767,75.246,75.246,0,0,1-25.009-22.677,63.208,63.208,0,1,1,126.012,7.06ZM233.719,180.9c4.525-15.115,8.292-28.484,11.242-39.815,1.692,8.807,3.452,18.172,5.026,26.908a7.541,7.541,0,0,0,11.394,5.076,74.765,74.765,0,0,1,11.663-5.9,7.54,7.54,0,0,0,4.748-6.667,171.147,171.147,0,0,1,7.239-40.187c9.487-32.241,16.731-53.709,21.984-67.821a7.725,7.725,0,0,0,.917.244c2.879,14.841,8.065,36.405,17.236,67.577a171.307,171.307,0,0,1,7.24,40.187,7.537,7.537,0,0,0,4.744,6.667,74.564,74.564,0,0,1,11.663,5.9,7.541,7.541,0,0,0,11.393-5.076c1.574-8.736,3.338-18.1,5.03-26.908,2.947,11.331,6.718,24.7,11.242,39.815,6.066,20.266,8.646,37.609,7.661,51.545a7.4,7.4,0,0,0-.013.861l.093,1.509c.037.578.084,1.155.084,1.744a74.224,74.224,0,0,1-5.11,26.953A78.264,78.264,0,0,0,228.2,254.645a74.3,74.3,0,0,1-2.306-18.086c0-.589.042-1.166.084-1.744l.088-1.509a7.3,7.3,0,0,0-.012-.861C225.073,218.509,227.649,201.166,233.719,180.9Z" transform="translate(-11.417 0)" fill="#515150"/><path d="M394.01,694.913l-74.452-22.685,74.452-22.685a7.542,7.542,0,1,0-4.4-14.429l-95.931,29.229-95.935-29.229a7.542,7.542,0,0,0-4.4,14.429L267.8,672.228l-74.457,22.685a7.542,7.542,0,1,0,4.4,14.429l95.935-29.229,95.931,29.229a7.542,7.542,0,1,0,4.4-14.429Z" transform="translate(0 -310.837)" fill="#515150"/></g><ellipse cx="20" cy="20.5" rx="20" ry="20.5" transform="translate(937 517)" fill="#f0543b"/></g></svg>