<svg xmlns="http://www.w3.org/2000/svg" width="156.609" height="129.14" viewBox="0 0 156.609 129.14"><g transform="translate(0.01 -5.605)"><path d="M66.9,10.138a59.025,59.025,0,1,0,59.027,59.027A59.027,59.027,0,0,0,66.9,10.138Zm0,111.527a52.5,52.5,0,1,1,52.5-52.5A52.5,52.5,0,0,1,66.9,121.665Z" transform="translate(11.398 6.556)" fill="#fff"/><path d="M47.793,12.315c2.7-1.245,2.319-3.173,1.918-4.122l-.294-.57a3.382,3.382,0,0,0-4.276-1.832A74.8,74.8,0,0,0-.01,72.5c.144,2.035,1.218,2.529,1.95,2.615H3.694c.815-.152,1.937-.82,2.148-3.261a3.8,3.8,0,0,1,.076-.511A69.017,69.017,0,0,1,47.465,12.489C47.59,12.428,47.654,12.381,47.793,12.315Z" transform="translate(0 0)" fill="#fff"/><path d="M49.267,6.1c-3.019-1.2-4.411.2-4.893.991l-.641,1.245c-.325.829-.563,2.657,2.618,4.176.071.037.12.068.186.1A69.029,69.029,0,0,1,87.688,71.66a.279.279,0,0,0,.049-.02s-.115,3.486,2.767,3.486h.788c.778-.064,2.16-.528,2.3-2.693A74.787,74.787,0,0,0,49.267,6.1Z" transform="translate(63.006 0.042)" fill="#fff"/><path d="M77.29,47.086c-1.644-2.632-5.218-6.13-7.936-8.618a1.2,1.2,0,0,0-1.49-.25,1.036,1.036,0,0,0-.546,1.164l-.044-.027a21.46,21.46,0,0,1,2.512,9.952c.024,2.224-.115,3.78-.12,3.809-.056.34-.12.638-.181.905-.186.905-1.419,3.574-3.168,2.84s-1.854-3.535-1.854-3.535a.072.072,0,0,1-.024.007C63.1,37.76,55.916,28.535,50.41,23.7l-.017-.017s-.01-.007-.017-.015a33.346,33.346,0,0,0-5.3-3.831,4.5,4.5,0,0,1-.435-.242,5.094,5.094,0,0,0-.734-.374.009.009,0,0,1,0,.007c-.157-.081-.318-.144-.479-.22a1.329,1.329,0,0,0-1.818.736,7.781,7.781,0,0,0,.592,3.581s0,0,0,0c2.229,6.042,4.944,16.735,2.1,28.2-.536,1.911-2.273,3.312-2.984,3.312a3.978,3.978,0,0,1-4.144-2.659c-.081-.225-.181-.435-.252-.68a.357.357,0,0,0-.01-.042c-1.509-5.384.34-13.44,1.634-17.934.868-3.325-3.212,0-3.212,0l-.015.01h0c-.8.675-1.666,1.441-2.576,2.287l0-.032c-1.15,1.052-2.669,2.512-4.232,4.183-.846.905-12.119,13.31-8.6,30.251A31.356,31.356,0,0,0,81.458,66.7c.076-.624.144-1.243.176-1.859.015-.2.02-.4.029-.6A32.324,32.324,0,0,0,77.29,47.086Z" transform="translate(27.83 19.231)" fill="#fff"/></g></svg>