<svg xmlns="http://www.w3.org/2000/svg" width="46.617" height="168.236" viewBox="0 0 46.617 168.236"><g transform="translate(-36.54 -0.22)"><path d="M49.911,150.2H60.078a2.542,2.542,0,0,0,2.542-2.542V61.239a11.421,11.421,0,0,0,3.847-8.473V37.938a11.438,11.438,0,1,0-22.877,0V52.766a11.421,11.421,0,0,0,3.847,8.473v86.423a2.542,2.542,0,0,0,2.474,2.542Zm-1.3-112.265a6.355,6.355,0,0,1,12.709,0V52.766a6.355,6.355,0,1,1-12.709,0ZM52.453,145.12v-81.2a11.066,11.066,0,0,0,5.084,0v81.2Z" transform="translate(4.897 18.253)" fill="#fff"/><path d="M44.877,65.63a2.542,2.542,0,0,0,.474-3.559,18.081,18.081,0,0,1-3.728-11.015c0-10.167,5.609-18.352,11.049-26.215A84.338,84.338,0,0,0,59.857,13.15a84.339,84.339,0,0,0,7.185,11.693C72.465,32.7,78.074,40.856,78.074,51.057a18.047,18.047,0,0,1-3.728,11.015,2.54,2.54,0,0,0,4.05,3.067,23.08,23.08,0,0,0,4.762-14.082c0-11.862-6.338-20.979-11.862-29.1-4.609-6.592-8.9-12.811-8.9-19.2a2.542,2.542,0,0,0-5.084,0c0,6.389-4.287,12.608-8.829,19.2-5.592,8.117-11.947,17.3-11.947,29.1A23.182,23.182,0,0,0,41.3,65.139a2.559,2.559,0,0,0,3.576.491Z" transform="translate(0 0)" fill="#fff"/></g></svg>