<svg xmlns="http://www.w3.org/2000/svg" width="125.303" height="54" viewBox="0 0 125.303 54"><g transform="translate(-140 -35.589)"><text transform="translate(140 57.589)" fill="#3f3f3f" font-size="20" font-family="SegoeUI-Bold, Segoe UI" font-weight="700"><tspan x="0" y="0">Pyromania</tspan><tspan x="0" y="27"></tspan></text><path d="M3.756,0A3.261,3.261,0,0,1,7.13,3.32L6.875,16.855a3.569,3.569,0,0,1-3.5,3.447A3.261,3.261,0,0,1,0,16.983L.255,3.448A3.569,3.569,0,0,1,3.756,0Z" transform="matrix(0.899, 0.438, -0.438, 0.899, 258.894, 38.047)" fill="#f0543b"/><path d="M3.756,0A3.261,3.261,0,0,1,7.13,3.32L6.875,16.855a3.569,3.569,0,0,1-3.5,3.447A3.261,3.261,0,0,1,0,16.983L.255,3.448A3.569,3.569,0,0,1,3.756,0Z" transform="matrix(0.899, 0.438, -0.438, 0.899, 250.374, 40.047)" fill="#ffc300"/></g></svg>